#N canvas 1132 315 393 333 10;
#X obj 95 158 adc~ 1;
#X text 18 100 Argument - # of samples for percentile calculation;
#X text 18 12 Ward and Tsukahara 2000 model \, based on snippet from
Poppe et al. 2010 Provide backchannel feedback upon detection of: A
region of pitch less than the 26th-percentile pitch level and continuing
for at least 110ms \, coming after at least 700ms of speech \, provided
that no backchannel has been output within the preceding 800ms \, after
700ms wait.;
#X obj 95 230 bng 25 250 50 0 empty empty empty 17 7 0 10 -262144 -1
-1;
#X obj 95 182 smooth_pitch 8192;
#X obj 95 206 WardTsukahara2000 100;
#X obj 95 261 s backchannel;
#X obj 218 158 r talking;
#X obj 218 182 change;
#X connect 0 0 4 0;
#X connect 3 0 6 0;
#X connect 4 0 5 0;
#X connect 5 0 3 0;
#X connect 7 0 8 0;
#X connect 8 0 5 1;
